# xmcd
#
# Track frame offsets: 
#        150
#        15675
#        43725
#        77475
#        109725
#        138450
#        161625
#
# Disc length: 2363 seconds
#
# Revision: 0
# Processed by: cddbd v1.5.2PL0 Copyright (c) Steve Scherf et al.
# Submitted via: ExactAudioCopy v0.99pb5
#
DISCID=52093907
DTITLE=Ice MC - Take Away The Colour (Remix)
DYEAR=1993
DGENRE=Eurodance
TTITLE0=Take Away The Colour (Radio 7'' Version)
TTITLE1=Take Away The Colour (Rob.X Remix)
TTITLE2=Take Away The Colour (F.O.S. Vocal Dub)
TTITLE3=Take Away The Colour (Uannanatu Remix)
TTITLE4=Take Away The Colour (Trance Dub)
TTITLE5=Take Away The Colour (VCF Mix)
TTITLE6=Take Away The Colour (To Be Sampled)
EXTD=
EXTT0=
EXTT1=
EXTT2=
EXTT3=
EXTT4=
EXTT5=
EXTT6=
PLAYORDER=
